<?xml version="1.0" encoding="utf-8"?>
<!-- Generator: Adobe Illustrator 16.0.0, SVG Export Plug-In . SVG Version: 6.00 Build 0)  -->
<!DOCTYPE svg PUBLIC "-//W3C//DTD SVG 1.1//EN" "http://www.w3.org/Graphics/SVG/1.1/DTD/svg11.dtd">
<svg version="1.1" id="Layer_1" xmlns="http://www.w3.org/2000/svg" xmlns:xlink="http://www.w3.org/1999/xlink" x="0px" y="0px"
	 width="64px" height="64px" viewBox="0 0 64 64" enable-background="new 0 0 64 64" xml:space="preserve">
<g id="K580Fq_1_">
	<g>
		<g>
			<path fill="#FBFDFE" d="M35.085,71.752c-12.584,0-25.168-0.021-37.751,0.033c-1.25,0.006-1.535-0.283-1.532-1.533
				c0.043-23.168,0.043-46.336,0-69.504c-0.002-1.25,0.282-1.534,1.532-1.532c25.168,0.042,50.336,0.042,75.504,0
				c1.25-0.002,1.533,0.282,1.531,1.532c-0.043,23.168-0.043,46.336,0,69.504c0.002,1.25-0.281,1.539-1.531,1.533
				C60.253,71.73,47.669,71.752,35.085,71.752z M11.354,51.953c0-6.684,0.038-12.662-0.018-18.637
				c-0.023-2.598,0.242-5.104,0.947-7.626c2.074-7.427,9.632-14.068,17.132-14.861c10.414-1.102,19.273,4.444,22.818,14.286
				c4.676,12.977-5.447,27.473-19.232,27.651c-4.292,0.055-8.204-0.902-11.805-3.26c-1.923-1.26-2.32-0.988-2.35,1.365
				c-0.022,1.748,0.022,3.498-0.013,5.246c-0.023,1.125,0.376,1.754,1.484,2.262c12.522,5.748,28.547,1.732,36.401-10.631
				C66.78,31.902,60.374,11.201,42.813,4.571c-11.404-4.306-21.986-2.146-30.87,6.374c-6.935,6.651-9.57,15.066-8.552,24.516
				C4.047,41.543,6.65,46.873,11.354,51.953z M32.466,18.305c-7.586-0.05-13.512,5.753-13.556,13.275
				c-0.044,7.657,5.649,13.547,13.185,13.645c7.615,0.098,13.592-5.652,13.666-13.146C45.837,24.275,40.122,18.355,32.466,18.305z"
				/>
			<path fill-rule="evenodd" clip-rule="evenodd" fill="#86D7F8" d="M11.354,51.953c-4.704-5.08-7.307-10.41-7.963-16.492
				c-1.018-9.45,1.617-17.865,8.552-24.516c8.884-8.52,19.466-10.68,30.87-6.374c17.561,6.629,23.967,27.331,13.904,43.177
				c-7.854,12.363-23.879,16.379-36.401,10.631c-1.108-0.508-1.507-1.137-1.484-2.262c0.036-1.748-0.009-3.498,0.013-5.246
				c0.03-2.354,0.427-2.625,2.35-1.365c3.602,2.357,7.513,3.314,11.805,3.26c13.785-0.178,23.908-14.674,19.232-27.651
				c-3.545-9.842-12.404-15.388-22.818-14.286c-7.5,0.793-15.058,7.435-17.132,14.861c-0.705,2.522-0.97,5.028-0.947,7.626
				C11.392,39.291,11.354,45.27,11.354,51.953z"/>
			<path fill-rule="evenodd" clip-rule="evenodd" fill="#0776C0" d="M32.466,18.305c7.656,0.051,13.371,5.97,13.295,13.773
				c-0.074,7.494-6.051,13.244-13.666,13.146C24.56,45.127,18.866,39.236,18.91,31.58C18.954,24.058,24.879,18.255,32.466,18.305z"
				/>
		</g>
	</g>
</g>
</svg>
